<?xml version="1.0" standalone="no"?>
<!DOCTYPE svg PUBLIC "-//W3C//DTD SVG 20010904//EN"
 "http://www.w3.org/TR/2001/REC-SVG-20010904/DTD/svg10.dtd">
<svg version="1.0" xmlns="http://www.w3.org/2000/svg"
 width="500.000000pt" height="500.000000pt" viewBox="0 0 500.000000 500.000000"
 preserveAspectRatio="xMidYMid meet">
<metadata>
Created by potrace 1.11, written by Peter Selinger 2001-2013
</metadata>
<g transform="translate(0.000000,500.000000) scale(0.100000,-0.100000)"
fill="#000000" stroke="none">
<path d="M2235 4945 c-134 -17 -199 -26 -206 -31 -4 -2 -24 -6 -45 -10 -71
-11 -278 -74 -394 -121 -208 -82 -422 -206 -610 -352 -88 -68 -319 -293 -380
-370 -46 -58 -170 -230 -170 -236 0 -2 -14 -24 -31 -49 -48 -72 -142 -261
-188 -378 -85 -220 -132 -414 -160 -668 -9 -75 -7 -467 2 -505 4 -18 19 -113
22 -140 0 -8 8 -48 20 -115 9 -45 40 -157 67 -240 88 -270 238 -548 418 -775
82 -103 282 -303 385 -385 370 -293 807 -473 1280 -527 138 -16 509 -8 616 12
13 3 41 7 64 10 22 4 78 15 125 26 841 194 1514 803 1792 1619 26 78 65 216
74 265 43 241 49 300 49 525 0 222 -6 286 -50 522 -13 70 -80 284 -122 388
-192 483 -542 900 -986 1178 -233 145 -564 278 -803 321 -32 6 -69 13 -81 15
-11 3 -43 7 -70 11 -26 4 -59 9 -73 12 -57 11 -450 10 -545 -2z"/>
</g>
</svg>
